<svg width="64" height="64" viewBox="0 0 64 64" fill="none" xmlns="http://www.w3.org/2000/svg">
<path fill-rule="evenodd" clip-rule="evenodd" d="M22 34C26.4183 34 30 37.5817 30 42V48C30 52.4183 26.4183 56 22 56H16C11.7199 56 8.22523 52.6389 8.01074 48.4121L8 48V42C8 37.5817 11.5817 34 16 34H22ZM16 38C13.7909 38 12 39.7909 12 42V48L12.0049 48.2061C12.1087 50.2512 13.7488 51.8913 15.7939 51.9951L16 52H22L22.2061 51.9951C24.3194 51.8879 26 50.14 26 48V42C26 39.7909 24.2091 38 22 38H16Z" fill="black"/>
<path fill-rule="evenodd" clip-rule="evenodd" d="M48 34C52.4183 34 56 37.5817 56 42V48C56 52.4183 52.4183 56 48 56H42C37.7199 56 34.2252 52.6389 34.0107 48.4121L34 48V42C34 37.5817 37.5817 34 42 34H48ZM42 38C39.7909 38 38 39.7909 38 42V48L38.0049 48.2061C38.1087 50.2512 39.7488 51.8913 41.7939 51.9951L42 52H48L48.2061 51.9951C50.3194 51.8879 52 50.14 52 48V42C52 39.7909 50.2091 38 48 38H42Z" fill="black"/>
<path fill-rule="evenodd" clip-rule="evenodd" d="M22 8C26.4183 8 30 11.5817 30 16V22C30 26.4183 26.4183 30 22 30H16C11.7199 30 8.22523 26.6389 8.01074 22.4121L8 22V16C8 11.5817 11.5817 8 16 8H22ZM16 12C13.7909 12 12 13.7909 12 16V22L12.0049 22.2061C12.1087 24.2512 13.7488 25.8913 15.7939 25.9951L16 26H22L22.2061 25.9951C24.3194 25.8879 26 24.14 26 22V16C26 13.7909 24.2091 12 22 12H16Z" fill="black"/>
<path fill-rule="evenodd" clip-rule="evenodd" d="M48 8C52.4183 8 56 11.5817 56 16V22C56 26.4183 52.4183 30 48 30H42C37.7199 30 34.2252 26.6389 34.0107 22.4121L34 22V16C34 11.5817 37.5817 8 42 8H48ZM42 12C39.7909 12 38 13.7909 38 16V22L38.0049 22.2061C38.1087 24.2512 39.7488 25.8913 41.7939 25.9951L42 26H48L48.2061 25.9951C50.3194 25.8879 52 24.14 52 22V16C52 13.7909 50.2091 12 48 12H42Z" fill="black"/>
</svg>
