<svg width="60" height="60" viewBox="0 0 24 24" fill="none" xmlns="http://www.w3.org/2000/svg">
<path fill-rule="evenodd" clip-rule="evenodd" d="M7.5 13.0002C9.433 13.0002 11 14.5672 11 16.5002V18.5002C10.9999 20.4331 9.43292 22.0002 7.5 22.0002H5.5C3.56708 22.0002 2.00012 20.4331 2 18.5002V16.5002C2 14.5672 3.567 13.0002 5.5 13.0002H7.5ZM5.5 15.0002C4.67157 15.0002 4 15.6718 4 16.5002V18.5002L4.00781 18.6535C4.08471 19.4098 4.72341 20.0002 5.5 20.0002H7.5L7.65332 19.9924C8.35923 19.9207 8.92041 19.3594 8.99219 18.6535L9 18.5002V16.5002C9 15.7236 8.40971 15.0848 7.65332 15.008L7.5 15.0002H5.5Z" fill="black"/>
<path fill-rule="evenodd" clip-rule="evenodd" d="M18.5 13.0002C20.433 13.0002 22 14.5672 22 16.5002V18.5002C21.9999 20.4331 20.4329 22.0002 18.5 22.0002H16.5C14.5671 22.0002 13.0001 20.4331 13 18.5002V16.5002C13 14.5672 14.567 13.0002 16.5 13.0002H18.5ZM16.5 15.0002C15.6716 15.0002 15 15.6718 15 16.5002V18.5002L15.0078 18.6535C15.0847 19.4098 15.7234 20.0002 16.5 20.0002H18.5L18.6533 19.9924C19.3592 19.9207 19.9204 19.3594 19.9922 18.6535L20 18.5002V16.5002C20 15.7236 19.4097 15.0848 18.6533 15.008L18.5 15.0002H16.5Z" fill="black"/>
<path fill-rule="evenodd" clip-rule="evenodd" d="M15.3604 2.61058C16.5319 1.43904 18.4319 1.43907 19.6035 2.61058L21.3711 4.37913C22.5424 5.55072 22.5426 7.44982 21.3711 8.62132L19.6035 10.3889C18.4319 11.5605 16.5319 11.5605 15.3604 10.3889L13.5928 8.62132C12.4214 7.44984 12.4215 5.55071 13.5928 4.37913L15.3604 2.61058ZM18.1895 4.02464C17.7989 3.63418 17.1649 3.63415 16.7744 4.02464L15.0068 5.79319C14.6166 6.18372 14.6165 6.81682 15.0068 7.20726L16.7744 8.97483L16.8506 9.04417C17.2171 9.34293 17.7468 9.34292 18.1133 9.04417L18.1895 8.97483L19.957 7.20726L20.0264 7.13108C20.3462 6.7384 20.3228 6.15918 19.957 5.79319L18.1895 4.02464Z" fill="black"/>
<path fill-rule="evenodd" clip-rule="evenodd" d="M7.5 2.00023C9.433 2.00023 11 3.56723 11 5.50023V7.50023C10.9999 9.43312 9.43292 11.0002 7.5 11.0002H5.5C3.56708 11.0002 2.00012 9.43312 2 7.50023V5.50023C2 3.56723 3.567 2.00023 5.5 2.00023H7.5ZM5.5 4.00023C4.67157 4.00023 4 4.6718 4 5.50023V7.50023L4.00781 7.65355C4.08471 8.40984 4.72341 9.00023 5.5 9.00023H7.5L7.65332 8.99241C8.35924 8.92074 8.92041 8.35943 8.99219 7.65355L9 7.50023V5.50023C9 4.72357 8.40971 4.08485 7.65332 4.00804L7.5 4.00023H5.5Z" fill="black"/>
</svg>
