<?xml version="1.0" encoding="UTF-8"?>
<!--Generator: Apple Native CoreSVG 341-->
<!DOCTYPE svg
PUBLIC "-//W3C//DTD SVG 1.1//EN"
       "http://www.w3.org/Graphics/SVG/1.1/DTD/svg11.dtd">
<svg version="1.1" xmlns="http://www.w3.org/2000/svg" xmlns:xlink="http://www.w3.org/1999/xlink" viewBox="0 0 17.3579 10.6133">
 <g>
  <rect height="10.6133" opacity="0" width="17.3579" x="0" y="0"/>
  <path d="M0.41748 7.57495C0.143799 7.85327 0 8.19653 0 8.6001C0 9.42114 0.658691 10.0891 1.4751 10.0891C1.88794 10.0891 2.26831 9.92212 2.56519 9.61597L8.8877 3.11255L8.13159 3.11255L14.4355 9.61597C14.7324 9.92676 15.1174 10.0891 15.521 10.0891C16.3328 10.0891 16.9961 9.42114 16.9961 8.6001C16.9961 8.19189 16.8569 7.84863 16.574 7.57495L9.71802 0.556641C9.34692 0.180908 8.96655 0.00927734 8.50269 0C8.03882 0 7.65845 0.17627 7.28271 0.556641Z" fill="white"/>
 </g>
</svg>
