<?xml version="1.0" encoding="UTF-8"?>
<!--Generator: Apple Native CoreSVG 341-->
<!DOCTYPE svg
PUBLIC "-//W3C//DTD SVG 1.1//EN"
       "http://www.w3.org/Graphics/SVG/1.1/DTD/svg11.dtd">
<svg version="1.1" xmlns="http://www.w3.org/2000/svg" xmlns:xlink="http://www.w3.org/1999/xlink" viewBox="0 0 17.5852 6.4292">
 <g>
  <rect height="6.4292" opacity="0" width="17.5852" x="0" y="0"/>
  <path d="M0.853516 3.11719C0.357178 3.33984 0 3.77588 0 4.33252C0 5.25098 0.677246 5.85864 1.44727 5.85864C1.88794 5.85864 2.4353 5.60352 2.88989 5.39478L9.08252 2.75073L8.14551 2.75073L14.3381 5.39478C14.7881 5.60352 15.3401 5.85864 15.7761 5.85864C16.5508 5.85864 17.2234 5.25098 17.2234 4.33252C17.2234 3.77588 16.8708 3.33984 16.3699 3.11719L10.2283 0.463867C9.62988 0.199463 9.17065 0 8.61401 0C8.05273 0 7.59814 0.199463 6.99976 0.463867Z" fill="white"/>
 </g>
</svg>
