<?xml version="1.0" encoding="UTF-8"?>
<!--Generator: Apple Native CoreSVG 341-->
<!DOCTYPE svg
PUBLIC "-//W3C//DTD SVG 1.1//EN"
       "http://www.w3.org/Graphics/SVG/1.1/DTD/svg11.dtd">
<svg version="1.1" xmlns="http://www.w3.org/2000/svg" xmlns:xlink="http://www.w3.org/1999/xlink" viewBox="0 0 19.2876 18.9351">
 <g>
  <rect height="18.9351" opacity="0" width="19.2876" x="0" y="0"/>
  <path d="M9.46289 18.9258C14.686 18.9258 18.9258 14.686 18.9258 9.46289C18.9258 4.23975 14.686 0 9.46289 0C4.23975 0 0 4.23975 0 9.46289C0 14.686 4.23975 18.9258 9.46289 18.9258ZM9.46289 17.3486C5.10254 17.3486 1.57715 13.8232 1.57715 9.46289C1.57715 5.10254 5.10254 1.57715 9.46289 1.57715C13.8232 1.57715 17.3486 5.10254 17.3486 9.46289C17.3486 13.8232 13.8232 17.3486 9.46289 17.3486Z" fill="white"/>
  <path d="M5.05615 12.7471C5.61279 12.7471 6.00244 12.5337 6.35498 12.1162L7.10645 11.1978C7.2085 11.0679 7.3291 11.0029 7.45898 11.0029L11.4482 11.0029C11.5781 11.0029 11.6987 11.0679 11.8008 11.1978L12.5615 12.1162C12.9048 12.5337 13.2944 12.7471 13.8511 12.7471C14.7974 12.7471 15.4282 12.1162 15.4282 11.1514C15.4282 10.7339 15.3354 10.27 15.1777 9.72266C14.918 8.8877 14.4727 7.72803 14.0459 6.82812C13.6934 6.08594 13.5171 5.74268 12.645 5.54785C11.8564 5.37158 10.7803 5.25098 9.45361 5.25098C8.12695 5.25098 7.05078 5.37158 6.26221 5.54785C5.39014 5.74268 5.21387 6.08594 4.86133 6.82812C4.43457 7.72803 3.99854 8.8877 3.73877 9.72266C3.58105 10.27 3.479 10.7339 3.479 11.1514C3.479 12.1162 4.10986 12.7471 5.05615 12.7471ZM5.98389 8.16406C5.98389 7.94141 6.12305 7.79297 6.35498 7.79297L7.10645 7.79297L7.10645 7.06934C7.10645 6.8374 7.23633 6.68896 7.45898 6.68896C7.68164 6.68896 7.81152 6.8374 7.81152 7.06934L7.81152 7.79297L8.52588 7.79297C8.77637 7.79297 8.9248 7.94141 8.9248 8.16406C8.9248 8.396 8.77637 8.53516 8.52588 8.53516L7.81152 8.53516L7.81152 9.27734C7.81152 9.5 7.68164 9.64844 7.45898 9.64844C7.23633 9.64844 7.10645 9.5 7.10645 9.27734L7.10645 8.53516L6.35498 8.53516C6.12305 8.53516 5.98389 8.396 5.98389 8.16406ZM12.1069 8.11768C11.7729 8.11768 11.4854 7.84863 11.4854 7.49609C11.4854 7.16211 11.7729 6.88379 12.1069 6.88379C12.4502 6.88379 12.7285 7.16211 12.7285 7.49609C12.7285 7.84863 12.4502 8.11768 12.1069 8.11768ZM10.8545 9.38867C10.5112 9.38867 10.2329 9.11035 10.2329 8.76709C10.2329 8.42383 10.5112 8.15479 10.8545 8.15479C11.1978 8.15479 11.4761 8.42383 11.4761 8.76709C11.4761 9.11035 11.1978 9.38867 10.8545 9.38867Z" fill="white"/>
 </g>
</svg>
