<?xml version="1.0" encoding="UTF-8"?>
<!--Generator: Apple Native CoreSVG 341-->
<!DOCTYPE svg
PUBLIC "-//W3C//DTD SVG 1.1//EN"
       "http://www.w3.org/Graphics/SVG/1.1/DTD/svg11.dtd">
<svg version="1.1" xmlns="http://www.w3.org/2000/svg" xmlns:xlink="http://www.w3.org/1999/xlink" viewBox="0 0 22.7531 22.4167">
 <g>
  <rect height="22.4167" opacity="0" width="22.7531" x="0" y="0"/>
  <path d="M4.66382 17.7636C6.51148 19.6044 10.4016 18.2265 14.3104 14.3211C18.2231 10.4016 19.6044 6.51148 17.7568 4.67065C15.8832 2.7976 12.0151 4.17898 8.08824 8.09898C4.17557 12.0224 2.79027 15.8832 4.66382 17.7636ZM5.99819 16.4151C4.94393 15.3574 6.33263 12.5482 9.42944 9.44409C12.5521 6.3214 15.3647 4.94734 16.4151 6.0016C17.4694 7.04854 16.0841 9.85382 12.9687 12.9833C9.86457 16.0841 7.04854 17.4728 5.99819 16.4151ZM17.7456 17.7602C19.6118 15.8832 18.2304 12.0258 14.3104 8.09507C10.4016 4.17898 6.52613 2.7976 4.64917 4.66724C2.80493 6.51148 4.19022 10.4016 8.1024 14.3138C12.0151 18.2265 15.8979 19.5971 17.7456 17.7602ZM16.4044 16.4151C15.3608 17.4728 12.5482 16.0841 9.42944 12.9687C6.31798 9.85724 4.94393 7.04854 5.99086 6.0016C7.04121 4.94734 9.85724 6.3214 12.9687 9.44018C16.0767 12.5516 17.4694 15.3608 16.4044 16.4151ZM19.0764 4.59024L21.8772 1.7895C22.2092 1.45357 22.2092 0.882298 21.8772 0.550279C21.5271 0.203607 20.97 0.210933 20.6272 0.550279L17.7762 3.39741ZM3.61603 17.5507L0.550279 20.6272C0.200191 20.9665 0.210933 21.5237 0.550279 21.863C0.878882 22.2058 1.43941 22.2097 1.7895 21.8737L5.03247 18.6342ZM11.203 22.406C17.3909 22.406 22.4094 17.3875 22.4094 11.203C22.4094 5.01849 17.3909 0 11.203 0C5.01849 0 0 5.01849 0 11.203C0 17.3875 5.01849 22.406 11.203 22.406ZM11.203 19.9444C6.36936 19.9444 2.46154 16.0366 2.46154 11.203C2.46154 6.36936 6.36936 2.46154 11.203 2.46154C16.0366 2.46154 19.9478 6.36936 19.9478 11.203C19.9478 16.0366 16.0366 19.9444 11.203 19.9444Z" fill="white" fill-opacity="0.85"/>
 </g>
</svg>
