<?xml version="1.0" encoding="UTF-8"?>
<!--Generator: Apple Native CoreSVG 341-->
<!DOCTYPE svg
PUBLIC "-//W3C//DTD SVG 1.1//EN"
       "http://www.w3.org/Graphics/SVG/1.1/DTD/svg11.dtd">
<svg version="1.1" xmlns="http://www.w3.org/2000/svg" xmlns:xlink="http://www.w3.org/1999/xlink" viewBox="0 0 232.812 203.613">
 <g>
  <rect height="203.613" opacity="0" width="232.812" x="0" y="0"/>
  <path d="M22.7539 153.223C18.457 153.223 15.7227 150.488 15.7227 146.191L15.7227 29.5898C15.7227 25.1953 18.457 22.5586 22.7539 22.5586L210.059 22.5586C214.355 22.5586 217.09 25.1953 217.09 29.5898L217.09 146.191C217.09 150.488 214.355 153.223 210.059 153.223Z" fill="white" fill-opacity="0.25"/>
  <path d="M22.4609 168.945L210.254 168.945C224.316 168.945 232.812 160.449 232.812 146.387L232.812 29.2969C232.812 15.2344 224.316 6.83594 210.254 6.83594L22.4609 6.83594C8.49609 6.83594 0 15.2344 0 29.2969L0 146.387C0 160.449 8.49609 168.945 22.4609 168.945ZM22.7539 153.223C18.457 153.223 15.7227 150.488 15.7227 146.191L15.7227 29.5898C15.7227 25.1953 18.457 22.5586 22.7539 22.5586L210.059 22.5586C214.355 22.5586 217.09 25.1953 217.09 29.5898L217.09 146.191C217.09 150.488 214.355 153.223 210.059 153.223ZM85.5469 192.188L147.266 192.188L147.266 167.676L85.5469 167.676ZM84.9609 203.613L147.852 203.613C152.148 203.613 155.664 200.098 155.664 195.703C155.664 191.309 152.148 187.793 147.852 187.793L84.9609 187.793C80.6641 187.793 77.0508 191.309 77.0508 195.703C77.0508 200.098 80.6641 203.613 84.9609 203.613Z" fill="white"/>
 </g>
</svg>
