<?xml version="1.0" encoding="UTF-8"?>
<!--Generator: Apple Native CoreSVG 341-->
<!DOCTYPE svg
PUBLIC "-//W3C//DTD SVG 1.1//EN"
       "http://www.w3.org/Graphics/SVG/1.1/DTD/svg11.dtd">
<svg version="1.1" xmlns="http://www.w3.org/2000/svg" xmlns:xlink="http://www.w3.org/1999/xlink" viewBox="0 0 30.249 29.8975">
 <g>
  <rect height="29.8975" opacity="0" width="30.249" x="0" y="0"/>
  <path d="M14.9414 29.8828C23.1885 29.8828 29.8828 23.1885 29.8828 14.9414C29.8828 6.69434 23.1885 0 14.9414 0C6.69434 0 0 6.69434 0 14.9414C0 23.1885 6.69434 29.8828 14.9414 29.8828ZM14.9414 27.3926C8.05664 27.3926 2.49023 21.8262 2.49023 14.9414C2.49023 8.05664 8.05664 2.49023 14.9414 2.49023C21.8262 2.49023 27.3926 8.05664 27.3926 14.9414C27.3926 21.8262 21.8262 27.3926 14.9414 27.3926Z" fill="white"/>
  <path d="M7.9834 20.127C8.8623 20.127 9.47754 19.79 10.0342 19.1309L11.2207 17.6807C11.3818 17.4756 11.5723 17.373 11.7773 17.373L18.0762 17.373C18.2812 17.373 18.4717 17.4756 18.6328 17.6807L19.834 19.1309C20.376 19.79 20.9912 20.127 21.8701 20.127C23.3643 20.127 24.3604 19.1309 24.3604 17.6074C24.3604 16.9482 24.2139 16.2158 23.9648 15.3516C23.5547 14.0332 22.8516 12.2021 22.1777 10.7812C21.6211 9.60938 21.3428 9.06738 19.9658 8.75977C18.7207 8.48145 17.0215 8.29102 14.9268 8.29102C12.832 8.29102 11.1328 8.48145 9.8877 8.75977C8.51074 9.06738 8.23242 9.60938 7.67578 10.7812C7.00195 12.2021 6.31348 14.0332 5.90332 15.3516C5.6543 16.2158 5.49316 16.9482 5.49316 17.6074C5.49316 19.1309 6.48926 20.127 7.9834 20.127ZM9.44824 12.8906C9.44824 12.5391 9.66797 12.3047 10.0342 12.3047L11.2207 12.3047L11.2207 11.1621C11.2207 10.7959 11.4258 10.5615 11.7773 10.5615C12.1289 10.5615 12.334 10.7959 12.334 11.1621L12.334 12.3047L13.4619 12.3047C13.8574 12.3047 14.0918 12.5391 14.0918 12.8906C14.0918 13.2568 13.8574 13.4766 13.4619 13.4766L12.334 13.4766L12.334 14.6484C12.334 15 12.1289 15.2344 11.7773 15.2344C11.4258 15.2344 11.2207 15 11.2207 14.6484L11.2207 13.4766L10.0342 13.4766C9.66797 13.4766 9.44824 13.2568 9.44824 12.8906ZM19.1162 12.8174C18.5889 12.8174 18.1348 12.3926 18.1348 11.8359C18.1348 11.3086 18.5889 10.8691 19.1162 10.8691C19.6582 10.8691 20.0977 11.3086 20.0977 11.8359C20.0977 12.3926 19.6582 12.8174 19.1162 12.8174ZM17.1387 14.8242C16.5967 14.8242 16.1572 14.3848 16.1572 13.8428C16.1572 13.3008 16.5967 12.876 17.1387 12.876C17.6807 12.876 18.1201 13.3008 18.1201 13.8428C18.1201 14.3848 17.6807 14.8242 17.1387 14.8242Z" fill="white"/>
 </g>
</svg>
