<?xml version="1.0" encoding="UTF-8"?>
<!--Generator: Apple Native CoreSVG 341-->
<!DOCTYPE svg
PUBLIC "-//W3C//DTD SVG 1.1//EN"
       "http://www.w3.org/Graphics/SVG/1.1/DTD/svg11.dtd">
<svg version="1.1" xmlns="http://www.w3.org/2000/svg" xmlns:xlink="http://www.w3.org/1999/xlink" viewBox="0 0 133.301 196.777">
 <g>
  <rect height="196.777" opacity="0" width="133.301" x="0" y="0"/>
  <path d="M21.9727 191.602L111.328 191.602C125.684 191.602 133.301 183.789 133.301 168.359L133.301 101.074C133.301 85.6445 125.684 77.9297 111.328 77.9297L21.9727 77.9297C7.61719 77.9297 0 85.6445 0 101.074L0 168.359C0 183.789 7.61719 191.602 21.9727 191.602ZM17.0898 85.4492L32.6172 85.4492L32.6172 52.4414C32.6172 27.832 48.3398 14.7461 66.6016 14.7461C84.8633 14.7461 100.781 27.832 100.781 52.4414L100.781 85.4492L116.211 85.4492L116.211 54.5898C116.211 17.8711 92.1875 0 66.6016 0C41.1133 0 17.0898 17.8711 17.0898 54.5898Z" fill="white"/>
 </g>
</svg>
